<svg xmlns="http://www.w3.org/2000/svg" width="307" height="257.031" viewBox="0 0 307 257.031">
  <defs>
    <style>
      .cls-1 {
        fill-rule: evenodd;
      }
    </style>
  </defs>
  <path id="Forma_1" data-name="Forma 1" class="cls-1" d="M83,169l69,71,1,8-45-18Zm67,64L90,169h13l47,46v18Zm-42-64h17l34,26-8,16Zm23,0H240v4l-95,7Zm112,0h4v2l-3,4h-3v-4Zm7,0h4v3l-3,3h-3v-3Zm6,1a3.39,3.39,0,0,1,3-1l5-1h7l6,1v2l-2,2h-6l-1-1-3,5v3h2v-4l2-1h4l4-3h2l2,2-10,10a23.7,23.7,0,0,1-.342,3.229A24.2,24.2,0,0,1,270,190c-0.635,2.136-1.444,4.6-2,6-1.5,3.763-4.5,11.237-6,15-3.167,7.964-6.307,13.338-13,23-2.964,4.278-5.936,8.245-9,12a185.607,185.607,0,0,1-19,20c-16.543,15.035-32.727,24.374-33,24-0.332-.455,14.7-10.7,26-21,14.34-13.079,23.479-24.539,30-35,4.8-7.7,10.2-19.212,15-31,2.558-6.284,4.862-12.537,7-19a6,6,0,0,1-3-1c-1.8-1.244-1.144-.148-2-2a14.168,14.168,0,0,0-4-5,8.157,8.157,0,0,1-1-2C255.305,171.93,255.59,170.51,256,170ZM85,184l-5-15-65-1ZM28,165a3.839,3.839,0,0,1-1,0c-1.846-.322-8.361-0.126-12,0l26-27c0.88-.293,1.637-0.372,2,0,0.862,0.885-1,4-1,4s-1.99,3.977-3,6c-2.948,5.907-6,11-6,11C33.023,158.952,30.37,164.636,28,165Zm23-37s12.431,0.1,15,0c0.342-.013.65-0.016,1,0,3.622,0.161,5.28,2.151,9,4,1.655,0.822,3.07,1.352,3,2-0.058.534-1.1,0.944-2,1a5.306,5.306,0,0,1-3-1c-1.276-.7-2.781-1.3-3-1-0.251.342,1.46,1.957,2,4,0.251,0.948.347,1.781,0,2-0.629.4-2.61-1.295-4-3-1.493-1.832-2.177-3.531-4-4a6.7,6.7,0,0,0-2,0c-1.16.066-3,0-3,0a2.955,2.955,0,0,0,0,1,3.227,3.227,0,0,0,2,2c1.551,0.728,2.449.272,4,1a3.227,3.227,0,0,1,2,2,3.405,3.405,0,0,1,0,1H61s-0.832,0-1,0a9.776,9.776,0,0,1-1,0,4.779,4.779,0,0,1-3-2c-0.867-1.037-1.154-1.945-2-3a9.925,9.925,0,0,0-2-2,1.942,1.942,0,0,1-1-1,2.165,2.165,0,0,1,0-1c0.018-.176,0-1,0-1S51,128,51,128Zm-7,8,1-2h2v2h1v2l-1,2H45l-1-2v-2Zm4-5h2l1,2v2l-1,1H48l-1-3Zm227,29s-3.413,0-6,0a217.493,217.493,0,0,0-4-29c-2.428-11.685-5.922-23.284-9-30-3.314-7.232-13.665-21.536-24-34a162.231,162.231,0,0,0-16-17,111.767,111.767,0,0,0-17-13c-2.7-1.616-7.092-3.8-7-4,0.142-.309,7.908,2.328,16,7,7.155,4.131,17.474,12.889,27,24,2.506,2.922,5.322,6.47,8,10,6.4,8.442,12.411,17.25,16,24a134.737,134.737,0,0,1,10,24C273.237,135.93,273.823,145.772,275,160ZM98,156a31.339,31.339,0,0,1-8-16,27.65,27.65,0,0,1,0-10c1.44-7.4,6.518-14.965,18-22,4.557-2.792,9.588-5.805,15-7h78a8.251,8.251,0,0,1-8,6c-6.531.073-27,0-27,0v2h17l-10,8h12s9,2.879,9,6v2H172v3h39a9.576,9.576,0,0,1-8,9,62.479,62.479,0,0,1-15,1c-1.089.073,6,5,6,5H172v2h17s-4.065,7.089-9,6c-0.139,1.141.172,1.571-.046,1.68a30.006,30.006,0,0,1,3.63-.119c4.136,0.217,7.11,2.366,8.416,2.439a12.769,12.769,0,0,1,3.058,1.866C195.713,157.466,197,161,197,161v1l109,1v-5l6,1,10,4-10,5-6,2v-5H120l-38-1-2,2H66l4-2H66v-2h4l-4-2H80l2,2h31s0.584-2.528,5-4,7-1,7-1a36.63,36.63,0,0,0,9,1c3.707-.273,2.472-5.34,3-6,2.375,0,2-1,2-1l-1-2,2-1v-3l4-2-8-18s-10.921,12.319-16,11-2.768-.549-6-2-3,3-3,3,0.34,4.462,1,4-5.936,6.491-5.474,6.293S98,156,98,156Z" transform="translate(-15 -32.969)"/>
</svg>
