<?xml version="1.0" encoding="UTF-8"?>
<svg id="Capa_2" data-name="Capa 2" xmlns="http://www.w3.org/2000/svg" viewBox="0 0 534.66 414.1">
  <defs>
    <style>
      .cls-1 {
        fill: #1b213f;
      }

      .cls-2 {
        fill: #ccc;
      }

      .cls-3 {
        fill: #c93;
      }
    </style>
  </defs>
  <g id="Layer_1" data-name="Layer 1">
    <g>
      <g>
        <path class="cls-1" d="M23.03,233.93c0,63.94,43.3,119.13,105.32,134.25,6.18,1.5,9.97,7.74,8.47,13.92-1.5,6.18-7.71,9.97-13.92,8.47C50.54,372.91,0,308.5,0,233.93c0-53.1,25.79-100.3,65.5-129.71,4.62-3.4,9.41-6.57,14.37-9.47,10.44-6.15,21.61-11.14,33.36-14.79,14.51,4.32,27.79,9.72,39.93,15.96-13.87,.81-27.18,3.65-39.65,8.27-6.66,2.45-13.09,5.43-19.21,8.83-42.47,23.61-71.26,68.95-71.26,120.91Z"/>
        <path class="cls-1" d="M394.81,74.06c-16.65,6.66-31.55,14.68-44.86,23.59-28.07,4.76-53.91,18.07-74.43,38.68-4.34,4.32-12,4.32-16.32,0-20.91-20.97-47.31-34.39-75.97-38.9-13.17-8.8-27.85-16.68-44.19-23.22,7.27-1.03,14.7-1.56,22.25-1.56,39.4,0,76.66,14.03,106.07,39.77,29.38-25.73,66.64-39.77,106.04-39.77,7.27,0,14.4,.47,21.41,1.42Z"/>
        <path class="cls-1" d="M534.66,233.93c0,75.19-51.02,139.71-124.09,156.92-.89,.22-1.78,.31-2.65,.31-5.24,0-9.94-3.56-11.19-8.88-1.48-6.18,2.37-12.39,8.55-13.84,62.63-14.73,106.35-70.06,106.35-134.5,0-52.07-28.93-97.52-71.57-121.08-6.18-3.43-12.67-6.4-19.41-8.86-12.61-4.62-26.09-7.44-40.13-8.16,12.25-6.27,25.67-11.72,40.35-16.04,11.81,3.62,23.06,8.58,33.53,14.7,4.96,2.9,9.75,6.04,14.34,9.44,39.93,29.38,65.91,76.69,65.91,129.99Z"/>
      </g>
      <path class="cls-3" d="M248.23,414.1c-1.88,0-3.78-.46-5.54-1.43-5.57-3.07-7.6-10.07-4.53-15.64l37.09-67.35c3.07-5.57,10.07-7.6,15.65-4.53,5.57,3.07,7.6,10.07,4.53,15.64l-37.09,67.35c-2.1,3.81-6.04,5.96-10.1,5.96Z"/>
      <g>
        <path class="cls-3" d="M165.01,380.42c-3.77,0-7.45-1.84-9.66-5.23-3.47-5.33-1.96-12.46,3.36-15.93l48.85-31.81c5.34-3.48,12.46-1.96,15.94,3.37,3.47,5.33,1.96,12.46-3.36,15.93l-48.85,31.81c-1.94,1.26-4.12,1.87-6.27,1.87Z"/>
        <path class="cls-3" d="M213.83,412.23c-2.15,0-4.33-.6-6.27-1.87l-48.85-31.81c-5.33-3.47-6.84-10.61-3.37-15.94,3.47-5.33,10.61-6.84,15.94-3.37l48.85,31.81c5.33,3.47,6.84,10.61,3.37,15.94-2.21,3.39-5.9,5.23-9.66,5.23Z"/>
      </g>
      <g>
        <path class="cls-3" d="M368.56,380.42c-2.15,0-4.33-.6-6.27-1.87l-48.85-31.81c-5.33-3.47-6.84-10.61-3.37-15.94,3.47-5.33,10.6-6.84,15.93-3.36l48.85,31.81c5.33,3.47,6.84,10.61,3.37,15.94-2.21,3.39-5.9,5.23-9.66,5.23Z"/>
        <path class="cls-3" d="M319.74,412.23c-3.77,0-7.46-1.84-9.66-5.23-3.47-5.33-1.97-12.47,3.37-15.94l48.85-31.81c5.33-3.48,12.47-1.96,15.93,3.36,3.47,5.33,1.97,12.47-3.37,15.94l-48.85,31.81c-1.94,1.26-4.12,1.87-6.27,1.87Z"/>
      </g>
      <path class="cls-1" d="M258.59,227.13c0,41.02-33.36,74.41-74.41,74.41s-74.41-33.39-74.41-74.41,33.39-74.43,74.41-74.43,74.41,33.39,74.41,74.43Z"/>
      <circle class="cls-3" cx="184.18" cy="227.12" r="28.23"/>
      <path class="cls-1" d="M423.8,227.13c0,41.02-33.39,74.41-74.41,74.41s-74.43-33.39-74.43-74.41,33.39-74.43,74.43-74.43,74.41,33.39,74.41,74.43Z"/>
      <circle class="cls-3" cx="349.39" cy="227.12" r="28.23"/>
      <path class="cls-2" d="M515.98,49.02c-14.7,21.08-36.26,36.92-61.57,45.47-4.26,1.48-8.66,2.7-13.12,3.73-7.18,1.64-14.06,3.56-20.63,5.76-34.22,11.31-60.57,29.35-80.7,49.32-38.32,37.98-54.3,82.84-59.62,101.56-1.53,5.43-2.17,8.66-2.23,8.86-1.06,5.43-5.79,9.36-11.33,9.36s-10.28-3.93-11.31-9.36c-.14-.78-.81-3.95-2.2-8.99v-.03c-5.21-18.88-20.77-63.49-59.01-101.31-20.08-19.85-46.39-37.84-80.76-49.21-6.77-2.28-13.84-4.26-21.25-5.96-4.23-.97-8.35-2.14-12.39-3.48-25.62-8.52-47.42-24.45-62.27-45.72C7.69,34.85,3.56,21.68,5.26,9.87,6.21,3.58,12.06-.77,18.32,.12c6.32,.92,10.67,6.77,9.75,13.06-.84,5.74,2.06,13.59,8.41,22.67,13.9,19.91,35.53,34.08,60.93,39.93,5.43,1.25,10.69,2.65,15.82,4.18,14.51,4.32,27.79,9.72,39.93,15.96,65.91,33.67,98.61,91.12,113.62,128.15,15.04-37.06,47.76-94.54,113.73-128.24h.03c12.25-6.27,25.67-11.72,40.35-16.04,4.93-1.48,10.02-2.81,15.26-4.01,25.4-5.85,47.03-20.02,60.96-39.93,6.32-9.08,9.25-16.93,8.41-22.67-.92-6.29,3.43-12.14,9.72-13.06,6.29-.92,12.14,3.45,13.06,9.75,1.73,11.81-2.42,24.98-12.31,39.15Z"/>
    </g>
  </g>
</svg>