<?xml version="1.0" encoding="UTF-8"?>
<svg id="Capa_2" data-name="Capa 2" xmlns="http://www.w3.org/2000/svg" viewBox="0 0 192 148.71">
  <defs>
    <style>
      .cls-1 {
        fill: #36c;
      }

      .cls-2 {
        fill: #ccc;
      }

      .cls-3 {
        fill: #c93;
      }
    </style>
  </defs>
  <g id="Layer_1" data-name="Layer 1">
    <g>
      <g>
        <path class="cls-1" d="M8.27,84c0,22.96,15.55,42.78,37.82,48.21,2.22,.54,3.58,2.78,3.04,5-.54,2.22-2.77,3.58-5,3.04C18.15,133.91,0,110.78,0,84c0-19.07,9.26-36.02,23.52-46.58,1.66-1.22,3.38-2.36,5.16-3.4,3.75-2.21,7.76-4,11.98-5.31,5.21,1.55,9.98,3.49,14.34,5.73-4.98,.29-9.76,1.31-14.24,2.97-2.39,.88-4.7,1.95-6.9,3.17-15.25,8.48-25.59,24.76-25.59,43.42Z"/>
        <path class="cls-1" d="M141.78,26.59c-5.98,2.39-11.33,5.27-16.11,8.47-10.08,1.71-19.36,6.49-26.73,13.89-1.56,1.55-4.31,1.55-5.86,0-7.51-7.53-16.99-12.35-27.28-13.97-4.73-3.16-10-5.99-15.87-8.34,2.61-.37,5.28-.56,7.99-.56,14.15,0,27.53,5.04,38.09,14.28,10.55-9.24,23.93-14.28,38.08-14.28,2.61,0,5.17,.17,7.69,.51Z"/>
        <path class="cls-1" d="M192,84c0,27-18.32,50.17-44.56,56.35-.32,.08-.64,.11-.95,.11-1.88,0-3.57-1.28-4.02-3.19-.53-2.22,.85-4.45,3.07-4.97,22.49-5.29,38.19-25.16,38.19-48.3,0-18.7-10.39-35.02-25.7-43.48-2.22-1.23-4.55-2.3-6.97-3.18-4.53-1.66-9.37-2.67-14.41-2.93,4.4-2.25,9.22-4.21,14.49-5.76,4.24,1.3,8.28,3.08,12.04,5.28,1.78,1.04,3.5,2.17,5.15,3.39,14.34,10.55,23.67,27.54,23.67,46.68Z"/>
      </g>
      <path class="cls-3" d="M89.14,148.71c-.67,0-1.36-.17-1.99-.51-2-1.1-2.73-3.62-1.63-5.62l13.32-24.19c1.1-2,3.62-2.73,5.62-1.63,2,1.1,2.73,3.62,1.63,5.62l-13.32,24.19c-.75,1.37-2.17,2.14-3.63,2.14Z"/>
      <g>
        <path class="cls-3" d="M59.25,136.61c-1.35,0-2.68-.66-3.47-1.88-1.25-1.91-.71-4.48,1.21-5.72l17.54-11.42c1.92-1.25,4.48-.71,5.72,1.21,1.25,1.91,.71,4.48-1.21,5.72l-17.54,11.42c-.7,.45-1.48,.67-2.25,.67Z"/>
        <path class="cls-3" d="M76.79,148.04c-.77,0-1.56-.22-2.25-.67l-17.54-11.42c-1.91-1.25-2.46-3.81-1.21-5.72,1.25-1.91,3.81-2.46,5.72-1.21l17.54,11.42c1.91,1.25,2.46,3.81,1.21,5.72-.79,1.22-2.12,1.88-3.47,1.88Z"/>
      </g>
      <g>
        <path class="cls-3" d="M132.35,136.61c-.77,0-1.56-.22-2.25-.67l-17.54-11.42c-1.91-1.25-2.46-3.81-1.21-5.72,1.25-1.91,3.81-2.46,5.72-1.21l17.54,11.42c1.91,1.25,2.46,3.81,1.21,5.72-.79,1.22-2.12,1.88-3.47,1.88Z"/>
        <path class="cls-3" d="M114.82,148.04c-1.35,0-2.68-.66-3.47-1.88-1.25-1.91-.71-4.48,1.21-5.72l17.54-11.42c1.91-1.25,4.48-.71,5.72,1.21,1.25,1.91,.71,4.48-1.21,5.72l-17.54,11.42c-.7,.45-1.48,.67-2.25,.67Z"/>
      </g>
      <path class="cls-1" d="M92.86,81.56c0,14.73-11.98,26.72-26.72,26.72s-26.72-11.99-26.72-26.72,11.99-26.73,26.72-26.73,26.72,11.99,26.72,26.73Z"/>
      <circle class="cls-3" cx="66.14" cy="81.56" r="10.14"/>
      <path class="cls-1" d="M152.19,81.56c0,14.73-11.99,26.72-26.72,26.72s-26.73-11.99-26.73-26.72,11.99-26.73,26.73-26.73,26.72,11.99,26.72,26.73Z"/>
      <circle class="cls-3" cx="125.47" cy="81.56" r="10.14"/>
      <path class="cls-2" d="M185.29,17.6c-5.28,7.57-13.02,13.26-22.11,16.33-1.53,.53-3.11,.97-4.71,1.34-2.58,.59-5.05,1.28-7.41,2.07-12.29,4.06-21.75,10.54-28.98,17.71-13.76,13.64-19.5,29.75-21.41,36.47-.55,1.95-.78,3.11-.8,3.18-.38,1.95-2.08,3.36-4.07,3.36s-3.69-1.41-4.06-3.36c-.05-.28-.29-1.42-.79-3.23h0c-1.87-6.79-7.46-22.81-21.19-36.39-7.21-7.13-16.66-13.59-29-17.67-2.43-.82-4.97-1.53-7.63-2.14-1.52-.35-3-.77-4.45-1.25-9.2-3.06-17.03-8.78-22.36-16.42C2.76,12.51,1.28,7.78,1.89,3.54,2.23,1.28,4.33-.28,6.58,.04c2.27,.33,3.83,2.43,3.5,4.69-.3,2.06,.74,4.88,3.02,8.14,4.99,7.15,12.76,12.24,21.88,14.34,1.95,.45,3.84,.95,5.68,1.5,5.21,1.55,9.98,3.49,14.34,5.73,23.67,12.09,35.41,32.72,40.8,46.02,5.4-13.31,17.15-33.95,40.84-46.05h.01c4.4-2.25,9.22-4.21,14.49-5.76,1.77-.53,3.6-1.01,5.48-1.44,9.12-2.1,16.89-7.19,21.89-14.34,2.27-3.26,3.32-6.08,3.02-8.14-.33-2.26,1.23-4.36,3.49-4.69,2.26-.33,4.36,1.24,4.69,3.5,.62,4.24-.87,8.97-4.42,14.06Z"/>
    </g>
  </g>
</svg>