<?xml version="1.0" standalone="no"?>
<!DOCTYPE svg PUBLIC "-//W3C//DTD SVG 20010904//EN"
 "http://www.w3.org/TR/2001/REC-SVG-20010904/DTD/svg10.dtd">
<svg version="1.0" xmlns="http://www.w3.org/2000/svg"
 width="1070.000000pt" height="1070.000000pt" viewBox="0 0 1070.000000 1070.000000"
 preserveAspectRatio="xMidYMid meet">
<metadata>
Created by potrace 1.14, written by Peter Selinger 2001-2017
</metadata>
<g transform="translate(0.000000,1070.000000) scale(0.100000,-0.100000)"
fill="#000000" stroke="none">
<path d="M259 9477 c-88 -33 -144 -106 -156 -206 -8 -64 -2 -188 11 -250 20
-94 91 -281 121 -321 6 -8 17 -28 25 -45 14 -30 88 -145 99 -155 3 -3 22 -27
41 -55 36 -52 53 -73 135 -164 84 -92 209 -211 275 -261 19 -14 45 -34 59 -46
35 -28 183 -129 201 -137 8 -4 33 -18 55 -31 73 -45 239 -123 352 -167 62 -24
113 -47 113 -50 0 -3 -10 -11 -22 -17 -13 -6 -41 -23 -63 -37 -22 -14 -50 -30
-62 -37 -13 -6 -23 -15 -23 -20 0 -4 -5 -8 -11 -8 -11 0 -19 -7 -179 -131
-174 -135 -382 -339 -500 -490 -14 -17 -37 -46 -51 -63 -36 -43 -189 -262
-189 -271 0 -3 -13 -25 -28 -48 -16 -23 -46 -76 -68 -117 -21 -41 -42 -76 -47
-78 -4 -2 -7 -7 -7 -12 0 -4 -16 -43 -36 -87 -49 -106 -58 -128 -87 -203 -23
-58 -73 -199 -78 -218 -1 -4 -3 -11 -4 -17 -2 -5 -6 -21 -9 -35 -4 -14 -17
-68 -31 -120 -13 -52 -26 -106 -29 -120 -2 -14 -11 -63 -20 -110 -9 -47 -18
-107 -21 -135 -3 -27 -8 -81 -12 -120 -13 -119 -6 -660 7 -660 1 0 4 -16 5
-35 6 -54 38 -241 45 -260 1 -3 2 -9 1 -14 -1 -4 3 -22 8 -40 6 -17 12 -42 15
-56 3 -14 9 -40 15 -57 5 -18 7 -33 4 -33 -3 0 -1 -6 5 -13 5 -6 13 -28 18
-47 4 -19 9 -39 10 -45 3 -10 41 -118 51 -145 4 -8 7 -17 8 -20 3 -10 18 -46
58 -140 49 -118 115 -250 167 -335 22 -36 40 -67 40 -69 0 -15 188 -284 245
-350 6 -6 34 -41 64 -76 64 -77 263 -276 340 -340 29 -25 61 -52 71 -60 56
-48 244 -183 280 -202 14 -7 27 -16 30 -19 26 -31 385 -214 515 -264 39 -14
79 -30 90 -35 11 -5 70 -25 130 -44 251 -79 299 -85 381 -46 113 55 159 191
104 306 -31 64 -79 100 -163 124 -87 25 -312 98 -347 113 -14 6 -28 10 -33 9
-4 -1 -7 2 -7 6 0 5 -6 9 -12 9 -13 0 -141 56 -168 73 -8 5 -40 22 -70 36 -30
15 -57 30 -60 33 -3 3 -21 15 -40 25 -55 31 -175 110 -178 118 -2 5 -8 8 -13
8 -12 0 -122 85 -214 164 -91 80 -218 206 -280 281 -27 33 -60 70 -73 83 -13
12 -19 22 -15 22 4 0 3 4 -2 8 -6 4 -37 43 -68 87 -31 44 -61 85 -66 91 -6 7
-8 14 -5 16 2 3 -5 13 -16 23 -11 10 -20 22 -20 28 0 5 -8 21 -18 35 -16 23
-33 52 -89 157 -6 11 -26 52 -43 90 -18 39 -38 82 -46 98 -9 15 -13 27 -9 27
3 0 -1 14 -10 30 -55 107 -136 415 -169 645 -27 189 -28 500 -2 720 8 71 17
131 21 145 2 8 7 31 10 50 3 19 8 43 11 52 3 9 7 26 9 37 3 12 7 31 11 44 3
12 7 33 10 47 9 43 96 295 105 305 5 5 9 15 9 22 0 19 110 247 121 251 5 2 9
12 9 22 0 10 5 22 11 25 5 4 14 17 20 28 10 26 15 33 93 152 32 49 68 102 80
117 12 14 32 41 46 59 79 105 264 299 370 389 29 25 62 53 72 63 10 9 20 17
23 17 3 0 15 9 28 21 100 86 414 272 572 338 44 18 94 40 112 47 41 18 48 18
118 -7 312 -109 754 -328 921 -456 18 -14 48 -33 64 -40 8 -4 17 -10 20 -13 3
-4 39 -31 80 -61 84 -60 80 -58 170 -131 79 -64 122 -103 214 -190 l71 -68
-40 5 c-51 7 -259 7 -305 0 -19 -3 -55 -7 -80 -10 -25 -3 -72 -12 -105 -20
-33 -9 -71 -18 -84 -21 -42 -9 -201 -73 -265 -106 -176 -92 -368 -248 -476
-388 -19 -25 -37 -47 -40 -50 -31 -27 -170 -275 -170 -303 0 -9 -3 -17 -8 -19
-15 -6 -72 -191 -88 -288 -2 -14 -7 -36 -10 -49 -11 -51 -23 -281 -14 -281 3
0 4 -22 4 -48 -1 -27 2 -73 7 -103 5 -30 11 -70 14 -89 3 -19 15 -66 27 -105
11 -38 21 -74 22 -80 2 -5 10 -28 20 -50 10 -22 19 -44 20 -50 5 -20 41 -90
48 -93 5 -2 8 -11 8 -20 0 -9 9 -28 20 -42 11 -14 20 -29 20 -34 0 -11 101
-150 112 -154 4 -2 8 -9 8 -15 0 -15 209 -219 249 -243 17 -10 31 -22 31 -26
0 -4 6 -8 14 -8 8 0 16 -4 18 -9 11 -30 303 -177 391 -197 4 -1 8 -2 10 -4 1
-1 9 -3 17 -5 8 -2 42 -10 74 -19 33 -9 62 -14 64 -11 3 2 12 0 21 -4 40 -21
316 -32 436 -18 303 37 578 158 800 352 75 66 145 134 145 141 0 3 10 15 23
28 32 34 54 62 66 84 6 11 17 27 25 34 17 17 120 197 122 213 1 7 9 25 17 41
l15 28 16 -54 c9 -30 19 -73 23 -95 25 -166 195 -258 337 -184 77 40 105 86
136 220 20 84 40 135 40 100 0 -27 127 -259 160 -291 3 -3 16 -21 30 -40 43
-61 159 -182 235 -245 53 -44 217 -155 229 -155 5 0 17 -7 27 -16 9 -8 23 -17
31 -18 7 -2 38 -14 68 -28 30 -14 73 -31 95 -38 22 -7 46 -17 53 -23 6 -5 12
-7 12 -4 0 3 21 0 48 -8 47 -14 81 -21 137 -30 17 -2 48 -7 70 -11 22 -4 96
-7 165 -7 109 0 163 4 270 18 63 9 239 60 315 93 55 23 209 103 215 110 3 4
38 30 79 57 133 90 296 262 395 419 120 189 207 448 221 660 2 28 4 53 5 56 8
27 -9 291 -20 320 -1 3 -2 9 -1 13 2 12 -45 184 -69 252 -66 189 -199 395
-358 552 -66 66 -214 183 -231 183 -5 0 -11 4 -13 9 -4 13 -165 96 -251 130
-71 28 -212 71 -252 76 -11 1 -40 6 -65 10 -25 4 -58 9 -75 11 -40 4 -261 4
-305 0 -34 -4 -34 -3 52 78 48 44 102 94 120 111 53 47 259 207 323 250 33 22
62 43 65 46 3 3 50 33 105 67 55 34 105 65 111 69 18 14 48 30 196 106 186 96
329 156 578 245 27 10 34 8 120 -26 107 -43 271 -124 375 -187 97 -58 239
-155 243 -167 2 -4 8 -8 14 -8 6 0 18 -8 27 -18 9 -10 23 -23 32 -28 24 -13
144 -120 214 -189 111 -112 187 -198 255 -290 25 -33 47 -62 50 -65 6 -5 51
-74 113 -173 21 -31 37 -61 37 -66 0 -5 4 -11 8 -13 7 -3 121 -230 142 -283 4
-11 17 -41 29 -67 12 -26 21 -56 21 -66 0 -10 4 -22 9 -27 8 -9 63 -180 76
-239 31 -138 55 -264 61 -321 2 -22 7 -69 11 -105 18 -166 5 -553 -23 -690 -3
-14 -7 -38 -9 -55 -2 -16 -6 -37 -8 -45 -4 -17 -16 -75 -22 -105 -2 -11 -4
-20 -5 -20 -1 0 -4 -12 -6 -28 -7 -40 -91 -295 -114 -344 -11 -24 -20 -45 -20
-49 0 -3 -12 -31 -27 -62 -15 -31 -27 -59 -28 -62 -1 -5 -20 -42 -68 -132 -36
-68 -120 -202 -129 -206 -5 -2 -8 -10 -8 -18 0 -8 -4 -14 -9 -14 -5 0 -12 -8
-15 -17 -3 -10 -16 -30 -28 -45 -13 -14 -32 -39 -43 -54 -72 -101 -298 -338
-394 -414 -24 -19 -48 -40 -55 -45 -62 -57 -354 -254 -365 -246 -2 1 -7 -1
-10 -7 -6 -9 -182 -98 -277 -140 -50 -22 -209 -82 -229 -86 -5 -2 -30 -9 -55
-16 -52 -15 -44 -13 -135 -36 -98 -24 -159 -70 -192 -144 -38 -87 -17 -188 55
-257 25 -23 48 -41 50 -38 3 3 12 0 19 -7 19 -15 124 -19 166 -7 36 11 61 18
94 25 12 2 35 9 50 15 16 6 35 12 44 14 18 4 105 32 129 42 8 3 20 7 25 8 62
15 508 223 525 246 3 3 20 14 39 24 19 9 39 21 45 26 6 5 48 34 93 64 83 55
156 108 204 148 15 12 48 40 75 62 63 51 340 328 379 379 17 21 40 50 53 65
71 82 282 402 282 427 0 8 4 14 9 14 5 0 14 15 22 33 7 17 15 34 18 37 12 10
81 158 124 265 54 135 59 147 63 160 31 96 76 244 79 255 2 8 12 53 23 100 11
46 18 88 16 92 -3 4 0 8 6 8 6 0 9 3 6 8 -2 4 0 30 5 57 12 62 18 105 25 170
2 28 8 79 11 115 9 80 9 472 0 560 -18 182 -40 315 -82 500 -2 8 -4 15 -5 15
-1 0 -3 7 -5 15 -2 12 -20 76 -30 110 -1 3 -5 19 -10 35 -4 17 -12 36 -18 43
-5 6 -7 12 -3 12 5 0 -9 42 -34 105 -4 11 -16 40 -25 65 -46 124 -159 351
-249 500 -60 98 -220 324 -256 360 -3 3 -32 37 -65 75 -199 233 -533 515 -771
649 -19 11 -31 22 -29 25 8 7 174 71 203 78 12 3 22 9 22 14 0 5 4 9 10 9 27
0 352 179 380 210 3 3 28 21 55 40 28 19 58 41 68 50 10 8 28 23 40 33 165
136 276 253 412 432 90 119 196 312 231 420 40 125 47 166 47 295 1 153 -8
181 -68 242 -41 41 -108 68 -167 68 -50 0 -126 -35 -161 -74 -49 -56 -60 -91
-62 -210 -1 -79 -7 -122 -19 -151 -10 -22 -19 -48 -21 -58 -8 -38 -128 -237
-147 -245 -4 -2 -8 -10 -8 -18 0 -8 -4 -14 -8 -14 -4 0 -15 -12 -24 -27 -29
-47 -147 -174 -228 -243 -127 -110 -106 -93 -190 -150 -36 -25 -67 -47 -70
-50 -8 -8 -77 -45 -170 -92 -47 -24 -88 -47 -91 -51 -3 -5 -8 -8 -10 -7 -5 2
-37 -9 -64 -21 -68 -30 -273 -95 -330 -105 -16 -2 -38 -7 -47 -10 -9 -3 -27
-7 -40 -10 -39 -9 -53 -12 -53 -14 0 -1 -7 -3 -15 -5 -8 -1 -35 -8 -60 -15
-25 -7 -52 -14 -60 -15 -8 -2 -16 -4 -17 -5 -2 -2 -6 -3 -10 -4 -5 -1 -35 -10
-68 -21 -33 -10 -62 -19 -65 -20 -3 0 -36 -12 -75 -25 -38 -13 -72 -24 -75
-25 -3 0 -18 -6 -35 -12 -44 -18 -89 -36 -95 -38 -31 -11 -47 -17 -162 -69
-43 -19 -78 -32 -78 -28 0 4 -4 3 -8 -3 -10 -14 -50 -36 -74 -40 -11 -3 -25
-8 -32 -14 -6 -5 -51 -30 -101 -56 -293 -153 -676 -417 -861 -592 -19 -18 -37
-33 -39 -33 -3 0 -32 -27 -66 -60 -33 -33 -64 -60 -69 -60 -5 0 -10 -4 -12 -9
-1 -5 -50 -58 -108 -118 -146 -151 -185 -197 -403 -473 -7 -9 -32 -45 -57 -80
-24 -36 -48 -69 -53 -75 -21 -25 -137 -208 -137 -216 0 -5 -3 -9 -7 -9 -5 0
-19 -23 -32 -50 -14 -28 -29 -50 -33 -50 -4 0 -8 -6 -8 -13 0 -7 -11 -29 -25
-50 -14 -20 -22 -37 -18 -37 4 0 3 -4 -3 -8 -14 -9 -154 -280 -154 -298 0 -8
-4 -14 -9 -14 -5 0 -11 -9 -14 -20 -3 -11 -6 -23 -7 -25 0 -3 -14 -31 -30 -64
-17 -33 -30 -62 -30 -65 0 -3 -12 -31 -26 -62 l-26 -57 -13 29 c-7 16 -28 65
-46 109 -41 96 -176 372 -223 452 -18 32 -45 78 -58 103 -82 146 -278 444
-350 529 -7 8 -28 36 -48 62 -98 130 -262 313 -409 459 -178 175 -227 220
-242 220 -7 0 -10 3 -6 6 3 4 -7 16 -23 28 -16 11 -84 64 -150 116 -67 52
-181 134 -253 182 -73 48 -137 92 -144 98 -7 5 -14 10 -17 10 -3 0 -29 14 -58
31 -74 44 -118 68 -233 129 -55 28 -104 55 -110 58 -5 4 -14 7 -20 9 -8 1 -88
36 -240 104 -25 11 -79 31 -82 30 -2 -1 -28 10 -58 24 -31 13 -56 24 -58 23
-1 -1 -54 16 -117 37 -63 21 -122 38 -130 39 -8 2 -22 5 -30 9 -12 5 -277 74
-314 81 -50 10 -212 63 -286 93 -141 57 -384 194 -480 270 -107 85 -226 196
-297 279 -36 43 -78 97 -87 113 -5 9 -13 18 -17 21 -17 12 -127 210 -144 260
-22 63 -21 62 -30 115 -3 22 -8 46 -10 53 -2 6 -1 12 3 12 4 0 7 17 6 37 -1
51 -14 123 -22 123 -4 0 -13 13 -20 29 -12 27 -80 81 -112 89 -47 11 -119 11
-151 -1z"/>
<path d="M3097 8034 c-1 -1 -45 -5 -97 -8 -52 -4 -106 -8 -120 -10 -14 -1 -41
-4 -60 -5 -34 -2 -33 -3 38 -37 40 -18 84 -37 98 -40 13 -3 24 -10 24 -15 0
-5 6 -9 14 -9 34 0 534 -269 544 -292 2 -5 8 -8 14 -8 5 0 29 -13 53 -30 51
-35 88 -51 130 -54 17 -2 44 -6 60 -10 17 -4 68 -17 115 -28 240 -57 519 -173
740 -306 77 -47 249 -165 286 -198 12 -11 36 -30 55 -44 18 -14 69 -59 113
-102 45 -42 92 -85 106 -96 30 -23 116 -51 145 -46 11 2 36 6 54 9 43 6 76 29
176 122 60 57 219 189 290 241 56 41 227 145 313 189 59 31 118 62 132 70 14
7 29 13 33 13 4 0 29 10 55 21 25 12 51 22 57 24 5 1 24 7 40 14 68 28 118 45
164 55 11 3 28 9 38 14 10 6 20 10 23 10 4 0 149 32 170 37 3 1 29 5 58 10 28
4 52 11 52 16 0 5 5 9 10 9 6 0 33 16 60 35 27 19 53 35 56 35 4 0 22 11 41
26 18 14 33 21 33 17 0 -4 4 -3 8 3 4 6 27 21 52 35 25 13 48 29 52 34 4 6 8
7 8 3 0 -4 29 10 65 32 36 22 68 40 72 40 3 0 60 27 125 60 65 33 120 60 123
60 3 0 24 8 48 19 23 10 61 26 85 36 23 10 41 20 38 22 -2 2 -22 6 -45 8 -23
2 -46 7 -51 10 -6 3 -10 1 -10 -5 0 -6 -5 -8 -12 -4 -37 23 -483 23 -663 -1
-22 -3 -58 -7 -80 -10 -22 -3 -51 -7 -65 -10 -14 -3 -38 -7 -55 -10 -68 -10
-102 -17 -140 -27 -22 -5 -47 -11 -55 -13 -38 -7 -108 -27 -142 -40 -21 -8
-38 -13 -38 -10 0 6 -169 -52 -200 -69 -14 -8 -29 -15 -35 -16 -42 -9 -228
-91 -237 -105 -4 -5 -8 -7 -8 -3 0 3 -41 -16 -91 -43 -49 -27 -94 -49 -100
-49 -5 0 -9 -4 -9 -10 0 -5 -5 -10 -10 -10 -6 0 -44 -22 -86 -50 -41 -27 -79
-50 -84 -50 -5 0 -10 -4 -12 -8 -1 -5 -30 -27 -63 -49 -34 -23 -67 -48 -74
-57 -7 -9 -19 -16 -26 -16 -8 0 -15 -4 -17 -9 -1 -4 -31 -31 -65 -59 l-61 -51
-94 75 c-51 41 -131 102 -178 134 -47 33 -89 63 -95 68 -33 26 -222 132 -332
186 -114 57 -333 148 -388 162 -5 1 -46 14 -90 27 -136 44 -290 80 -430 102
-91 14 -122 18 -260 31 -53 5 -384 12 -388 8z"/>
<path d="M5611 2983 c-41 -20 -111 -87 -111 -105 0 -3 -41 -79 -91 -169 -50
-90 -114 -207 -142 -259 -28 -52 -54 -96 -59 -98 -4 -2 -8 -8 -8 -14 0 -6 -22
-49 -49 -97 -26 -47 -65 -117 -86 -156 -21 -38 -61 -110 -88 -160 -28 -49 -62
-112 -76 -140 -13 -27 -27 -52 -30 -55 -3 -3 -14 -21 -25 -40 -117 -221 -109
-198 -103 -277 6 -76 9 -82 73 -148 67 -68 163 -83 252 -39 67 33 91 66 185
244 40 78 60 113 67 120 3 3 14 23 25 45 11 22 31 60 46 85 21 38 48 86 123
225 6 11 17 28 25 38 8 9 11 17 7 17 -4 0 1 12 12 28 10 15 43 72 73 127 30
55 59 109 66 120 7 11 17 30 22 42 6 12 22 40 36 63 14 22 22 40 18 40 -5 0
-3 4 2 8 11 7 23 28 58 95 11 23 23 44 26 47 4 3 22 36 41 75 71 141 37 275
-85 338 -61 31 -142 31 -204 0z"/>
<path d="M4178 2946 c-25 -12 -62 -34 -82 -49 -19 -15 -37 -27 -40 -27 -3 0
-35 -20 -72 -45 -36 -25 -69 -45 -74 -45 -4 0 -10 -3 -12 -7 -4 -10 -65 -53
-74 -53 -4 0 -22 -11 -40 -25 -18 -14 -37 -25 -43 -25 -6 0 -11 -4 -11 -8 0
-4 -15 -16 -32 -27 -35 -19 -81 -49 -323 -207 -82 -53 -155 -102 -162 -108 -7
-5 -16 -10 -22 -10 -16 0 -81 -71 -100 -109 -35 -71 -16 -192 40 -252 26 -27
164 -119 178 -119 5 0 11 -4 13 -8 2 -5 35 -29 73 -53 39 -24 75 -47 80 -52 6
-4 60 -40 120 -79 229 -146 260 -167 270 -175 27 -21 126 -83 134 -83 5 0 11
-3 13 -7 5 -12 160 -111 192 -123 49 -18 121 -14 169 9 91 44 132 110 132 211
-1 71 -19 117 -65 161 -31 30 -195 139 -209 139 -5 0 -11 4 -13 8 -1 5 -50 39
-108 77 -317 205 -380 249 -373 255 24 19 82 60 86 60 6 0 317 205 334 219 7
6 15 11 18 11 3 0 46 27 95 60 49 33 94 60 99 60 5 0 11 3 13 8 2 4 20 20 41
35 92 69 113 213 44 310 -24 35 -96 89 -108 81 -5 -3 -9 0 -9 5 0 21 -122 12
-172 -13z"/>
<path d="M6290 2943 c-54 -32 -75 -55 -100 -108 -34 -71 -23 -165 27 -233 19
-26 314 -233 358 -251 5 -2 70 -44 143 -93 73 -48 137 -88 143 -88 5 0 9 -4 9
-9 0 -5 8 -12 19 -16 10 -3 28 -14 41 -25 l21 -19 -22 -12 c-13 -6 -32 -20
-43 -30 -11 -11 -24 -19 -28 -19 -9 0 -68 -39 -78 -51 -3 -4 -15 -9 -27 -13
-13 -4 -23 -12 -23 -17 0 -5 -5 -9 -10 -9 -6 0 -16 -5 -23 -10 -7 -6 -46 -33
-87 -59 -41 -27 -117 -76 -168 -110 -51 -33 -97 -61 -102 -61 -4 0 -10 -7 -14
-15 -3 -8 -11 -15 -17 -15 -7 0 -31 -16 -54 -35 -136 -111 -101 -328 63 -391
50 -20 143 -15 188 10 39 22 68 40 74 46 3 3 70 48 150 99 80 52 148 98 151
103 3 5 10 9 15 8 5 0 19 7 32 17 13 10 36 25 50 33 48 27 117 75 120 83 2 4
8 7 14 7 5 0 24 11 42 25 18 14 38 25 44 25 6 0 12 3 14 8 4 9 86 63 94 61 4
0 10 3 13 8 10 14 70 53 81 53 5 0 10 4 10 8 0 5 12 15 28 23 69 36 135 100
154 152 38 102 -4 225 -95 281 -103 63 -483 312 -485 318 -2 5 -8 8 -12 8 -5
0 -89 53 -187 117 -98 65 -187 122 -198 128 -11 6 -46 29 -79 50 -52 35 -65
39 -130 42 -62 2 -78 -1 -116 -24z"/>
</g>
</svg>
