<?xml version="1.0" standalone="no"?>
<!DOCTYPE svg PUBLIC "-//W3C//DTD SVG 20010904//EN"
 "http://www.w3.org/TR/2001/REC-SVG-20010904/DTD/svg10.dtd">
<svg version="1.0" xmlns="http://www.w3.org/2000/svg"
 width="700.000000pt" height="700.000000pt" viewBox="0 0 700.000000 700.000000"
 preserveAspectRatio="xMidYMid meet">
<metadata>
Created by potrace 1.11, written by Peter Selinger 2001-2013
</metadata>
<g transform="translate(0.000000,700.000000) scale(0.100000,-0.100000)"
fill="#000000" stroke="none">
<path d="M3100 6459 c-610 -63 -1185 -304 -1657 -696 -127 -105 -338 -321
-441 -451 -291 -366 -502 -811 -596 -1257 -53 -254 -61 -339 -60 -650 0 -311
12 -429 69 -680 29 -132 106 -379 114 -367 3 5 227 34 496 66 270 32 701 87
960 122 258 35 471 64 472 64 2 0 3 411 3 914 l0 914 543 277 c298 153 614
315 702 360 88 46 466 239 840 430 374 191 684 351 688 355 10 9 -209 155
-349 233 -355 198 -769 325 -1193 367 -121 12 -469 11 -591 -1z"/>
<path d="M5125 5063 c-1021 -1040 -2286 -2321 -3367 -3408 -247 -248 -448
-456 -448 -462 0 -17 126 -142 205 -202 39 -30 62 -46 53 -36 -16 17 -15 19 2
34 10 9 228 243 486 521 257 278 522 561 588 630 67 69 418 447 781 840 514
557 1671 1806 2005 2165 34 37 53 70 72 125 14 41 42 119 61 173 20 53 35 97
33 97 -1 0 -214 -215 -471 -477z"/>
<path d="M5926 5124 c-76 -199 -1061 -2672 -1067 -2678 -8 -9 -202 -34 -1414
-187 l-500 -63 3 -908 4 -908 -49 5 c-28 2 -18 -1 27 -9 154 -29 329 -39 559
-33 301 8 507 39 781 119 1070 312 1899 1204 2134 2298 52 239 60 335 60 645
0 227 -3 316 -17 410 -65 436 -200 816 -418 1180 -34 56 -70 112 -79 125 -16
21 -17 21 -24 4z"/>
<path d="M1060 1426 c0 -2 8 -10 18 -17 15 -13 16 -12 3 4 -13 16 -21 21 -21
13z"/>
<path d="M1160 1315 c19 -19 36 -35 39 -35 3 0 -10 16 -29 35 -19 19 -36 35
-39 35 -3 0 10 -16 29 -35z"/>
</g>
</svg>
