<?xml version="1.0" standalone="no"?>
<!DOCTYPE svg PUBLIC "-//W3C//DTD SVG 20010904//EN"
 "http://www.w3.org/TR/2001/REC-SVG-20010904/DTD/svg10.dtd">
<svg version="1.0" xmlns="http://www.w3.org/2000/svg"
 width="614.000000pt" height="614.000000pt" viewBox="0 0 614.000000 614.000000"
 preserveAspectRatio="xMidYMid meet">
<metadata>
Created by potrace 1.11, written by Peter Selinger 2001-2013
</metadata>
<g transform="translate(0.000000,614.000000) scale(0.100000,-0.100000)"
fill="#000000" stroke="none">
<path d="M3572 5622 c14 -12 30 -22 35 -22 8 0 179 -108 206 -130 6 -5 49 -39
94 -75 92 -73 280 -256 364 -354 30 -35 59 -69 64 -75 9 -9 169 -213 221 -281
117 -152 235 -340 279 -444 62 -146 131 -386 171 -591 13 -70 24 -129 28 -160
3 -19 8 -46 10 -60 7 -39 15 -110 21 -170 13 -136 15 -153 17 -155 4 -4 65 -7
96 -6 20 1 22 5 18 49 -3 26 -8 88 -11 137 -4 50 -8 97 -11 106 -2 9 -7 38 -9
65 -11 113 -52 304 -95 434 -66 201 -169 428 -256 563 -24 37 -44 72 -44 77 0
6 -4 10 -10 10 -5 0 -10 7 -10 15 0 8 -4 15 -10 15 -5 0 -10 5 -10 10 0 6 -5
16 -11 23 -5 7 -44 59 -85 117 -145 202 -234 308 -390 464 -109 109 -149 147
-214 196 -18 14 -39 31 -46 38 -7 6 -17 12 -23 12 -6 0 -11 4 -11 8 0 8 -82
57 -191 115 -57 30 -94 46 -194 83 -15 5 -13 2 7 -14z"/>
<path d="M2138 4275 c-3 -3 -16 -8 -28 -10 -40 -8 -202 -92 -290 -150 -114
-76 -225 -191 -273 -282 -21 -40 -37 -75 -37 -78 1 -3 -4 -31 -10 -62 -7 -32
-10 -87 -6 -127 6 -68 12 -98 35 -177 11 -37 70 -137 108 -183 l22 -27 78 79
c101 102 199 213 196 222 -10 36 -12 101 -4 122 11 31 13 30 113 -6 37 -13 68
-22 70 -20 2 1 16 5 31 8 29 5 88 38 122 67 11 10 52 47 90 83 65 60 70 63 76
43 7 -21 32 -79 84 -192 13 -27 32 -71 43 -98 l21 -47 -40 -20 c-32 -17 -39
-26 -39 -50 0 -19 -7 -33 -20 -40 -16 -9 -18 -15 -10 -31 12 -22 6 -39 -16
-39 -8 0 -15 -6 -15 -12 -12 -118 -11 -118 -225 -93 -97 12 -189 -16 -240 -72
l-21 -22 -308 0 c-289 0 -309 1 -325 18 -17 21 -43 24 -200 22 l-95 -2 35 -19
35 -19 -37 -1 c-31 0 -38 -4 -38 -20 0 -16 7 -20 36 -20 21 0 33 -4 29 -10 -4
-6 -9 -8 -13 -6 -4 2 -16 -2 -27 -10 -21 -16 -26 -15 110 -15 133 0 142 1 164
20 24 21 9 21 551 7 102 -3 1032 -5 2068 -6 l1882 0 0 -43 c0 -24 3 -46 6 -50
3 -3 20 -1 37 5 44 14 267 120 267 127 0 16 -258 101 -306 101 -2 0 -4 -22 -4
-50 l0 -50 -562 5 c-310 3 -788 8 -1063 10 -275 2 -511 4 -525 5 -21 0 -28 8
-43 49 -19 55 -39 71 -135 108 -72 27 -84 30 -149 32 -32 1 -43 5 -43 16 0 9
6 15 13 13 30 -6 89 27 128 70 l41 47 -171 3 c-161 2 -171 4 -171 22 0 17 8
19 98 19 53 0 151 1 217 1 l120 1 -29 22 c-16 12 -43 34 -60 48 l-30 26 65 1
c65 0 171 9 223 18 72 12 136 60 162 120 14 34 12 70 -4 67 -11 -3 -57 -3
-383 -2 -119 0 -220 -1 -225 -2 -5 -1 -13 -1 -19 0 -5 1 -38 2 -72 3 -63 0
-63 0 -63 29 l0 29 178 -1 c287 -1 262 -3 262 29 0 33 -24 58 -95 98 -46 26
-61 28 -184 33 l-134 6 92 74 c51 40 90 75 87 78 -2 3 -77 4 -165 4 -155 -2
-161 -1 -161 18 0 20 6 21 284 20 233 0 291 3 321 15 36 16 73 53 87 88 7 17
-24 18 -781 18 -433 0 -790 -2 -793 -5z"/>
<path d="M806 3741 c-3 -5 -15 -7 -26 -4 -11 3 -30 3 -43 -1 -33 -8 -28 -51 9
-85 17 -14 45 -47 64 -73 38 -55 43 -57 130 -58 108 -2 120 -1 120 14 0 22
-49 56 -80 56 -31 0 -80 34 -80 56 0 10 14 14 56 14 51 0 59 -3 83 -31 62 -73
102 -110 114 -106 15 5 11 32 -14 80 -22 43 -16 45 44 16 43 -21 97 -21 97 0
0 8 -124 82 -175 105 -30 13 -84 17 -217 15 -32 0 -62 2 -67 5 -5 4 -12 2 -15
-3z"/>
<path d="M651 3662 c-10 -19 -8 -52 4 -72 3 -6 2 -10 -3 -10 -5 0 -12 9 -15
21 -8 29 -39 21 -51 -14 -15 -40 3 -82 34 -82 20 0 27 7 36 34 7 23 21 38 42
47 31 13 31 13 18 51 -15 44 -48 56 -65 25z"/>
<path d="M531 3542 c-8 -3 -33 -24 -55 -47 -23 -23 -122 -127 -221 -230 -99
-103 -195 -202 -212 -220 -18 -18 -33 -36 -33 -39 0 -3 59 -5 132 -5 l132 1
33 36 c18 20 33 41 33 48 0 7 3 14 8 16 8 4 21 27 119 214 97 187 106 209 90
222 -7 5 -18 7 -26 4z"/>
<path d="M5035 2943 c-105 -9 -196 -28 -209 -42 -9 -9 -14 -30 -12 -46 2 -17
4 -35 5 -40 0 -6 21 -32 45 -58 24 -27 50 -61 56 -77 8 -20 26 -35 56 -47 32
-13 42 -22 38 -33 -3 -8 -19 -51 -34 -95 -68 -195 -159 -414 -251 -604 -72
-149 -176 -333 -191 -339 -4 -2 -8 -8 -8 -13 0 -8 -61 -99 -85 -125 -13 -15
-32 -39 -75 -94 -64 -83 -93 -114 -255 -275 -174 -174 -261 -249 -460 -401
-71 -54 -131 -102 -133 -106 -2 -5 -8 -8 -14 -8 -5 0 -17 -7 -26 -16 -15 -15
-14 -16 8 -9 14 4 27 11 30 14 3 4 25 19 50 33 45 26 291 196 300 207 3 4 25
22 50 41 24 19 52 42 60 50 9 8 38 33 66 55 139 112 409 400 551 590 189 252
272 398 374 653 28 70 54 131 57 137 4 5 8 18 9 28 2 10 9 28 15 40 7 12 13
24 14 27 0 3 3 12 6 20 21 54 44 154 47 197 1 7 46 58 102 114 l100 101 -22
19 c-30 26 -49 24 -97 -11 -31 -22 -53 -30 -85 -30 -54 0 -75 -16 -79 -60 -2
-24 -9 -36 -20 -38 -26 -5 -23 42 6 97 l23 45 84 0 84 1 17 35 18 35 -28 8
c-15 4 -53 9 -85 12 -31 2 -61 6 -65 7 -4 2 -20 2 -37 1z"/>
<path d="M55 2928 c27 -8 172 -41 235 -54 14 -3 33 -7 42 -10 9 -3 25 -7 35
-9 69 -15 162 -36 243 -55 52 -12 102 -23 110 -25 8 -2 87 -20 175 -40 88 -20
167 -38 175 -40 8 -2 38 -9 65 -15 28 -6 59 -14 70 -16 11 -2 56 -13 100 -23
44 -11 83 -17 86 -15 4 2 -15 67 -41 143 -26 77 -45 143 -42 146 3 3 -10 5
-29 5 -19 1 -160 3 -314 5 -663 11 -939 12 -910 3z"/>
<path d="M1510 2912 c0 -4 8 -15 18 -23 9 -9 60 -63 114 -120 53 -57 116 -125
140 -150 23 -25 93 -99 153 -164 61 -64 128 -136 150 -160 35 -37 201 -213
305 -325 85 -91 257 -275 283 -301 l27 -29 0 180 0 180 -64 63 c-35 34 -220
216 -412 403 -192 188 -375 367 -407 398 l-58 56 -124 0 c-69 0 -125 -3 -125
-8z"/>
<path d="M2023 2761 c89 -87 218 -214 287 -281 69 -67 186 -182 261 -256 75
-74 140 -134 145 -134 5 0 44 69 86 154 l77 155 -62 49 c-34 26 -109 84 -167
128 -58 43 -107 81 -110 84 -3 3 -32 26 -65 51 -33 25 -108 82 -167 127 l-107
82 -170 0 -171 0 163 -159z"/>
<path d="M2330 2911 c0 -5 6 -11 14 -14 8 -3 58 -41 113 -84 126 -101 159
-124 167 -116 3 4 25 7 49 9 23 1 80 5 127 8 47 4 114 9 150 11 36 3 97 7 135
10 39 4 99 8 135 10 35 3 93 7 130 10 36 3 99 8 140 10 41 3 100 8 130 10 90
7 190 14 280 20 47 3 112 7 145 10 62 6 118 10 269 21 50 3 106 8 125 9 20 2
42 4 49 4 7 1 12 16 12 41 l0 40 -1085 0 c-630 0 -1085 -4 -1085 -9z"/>
<path d="M4540 2900 c-13 -13 -20 -33 -20 -60 0 -38 1 -40 33 -40 27 0 36 7
60 44 39 61 36 76 -13 76 -27 0 -47 -7 -60 -20z"/>
<path d="M4686 2901 c-10 -11 -20 -38 -23 -60 -6 -40 -5 -41 26 -41 42 0 91
49 91 90 0 28 -2 30 -38 30 -26 0 -45 -7 -56 -19z"/>
<path d="M1378 2872 c10 -23 22 -45 25 -49 4 -3 7 -16 7 -28 0 -11 4 -25 8
-30 5 -6 23 -46 42 -90 18 -44 38 -93 45 -110 8 -16 23 -55 35 -85 12 -30 27
-68 35 -85 19 -43 95 -228 160 -390 31 -77 64 -158 74 -180 10 -22 24 -57 32
-78 7 -21 18 -42 24 -46 5 -5 143 -61 305 -126 162 -64 306 -122 320 -128 14
-6 27 -11 30 -11 12 -3 176 -70 185 -76 6 -4 20 -10 32 -13 25 -6 24 -16 8
114 -4 30 -16 51 -48 83 -23 24 -150 155 -282 291 -132 136 -298 307 -370 380
-71 73 -231 238 -355 366 -270 278 -280 289 -308 313 l-23 20 19 -42z"/>
</g>
</svg>
