<?xml version="1.0" standalone="no"?>
<!DOCTYPE svg PUBLIC "-//W3C//DTD SVG 20010904//EN"
 "http://www.w3.org/TR/2001/REC-SVG-20010904/DTD/svg10.dtd">
<svg version="1.0" xmlns="http://www.w3.org/2000/svg"
 width="768.000000pt" height="768.000000pt" viewBox="0 0 768.000000 768.000000"
 preserveAspectRatio="xMidYMid meet">
<metadata>
Created by potrace 1.14, written by Peter Selinger 2001-2017
</metadata>
<g transform="translate(0.000000,768.000000) scale(0.100000,-0.100000)"
fill="#000000" stroke="none">
<path d="M175 6796 c-39 -18 -79 -63 -93 -105 -20 -57 -8 -206 22 -291 14 -41
28 -79 29 -85 10 -34 108 -199 149 -250 4 -5 24 -30 44 -55 60 -76 165 -180
249 -247 100 -80 106 -85 136 -102 13 -8 53 -33 89 -55 54 -33 182 -97 200
-101 3 0 16 -7 30 -15 14 -7 25 -12 25 -11 0 1 14 -3 30 -9 17 -6 36 -13 44
-15 8 -3 -28 -33 -85 -71 -90 -61 -161 -112 -190 -139 -6 -5 -33 -29 -60 -51
-214 -182 -412 -438 -543 -701 -74 -149 -82 -166 -124 -288 -34 -98 -75 -249
-82 -303 -2 -15 -4 -27 -5 -27 -2 0 -6 -24 -14 -75 -29 -188 -29 -573 0 -690
3 -14 6 -34 5 -44 0 -15 41 -195 63 -276 70 -253 235 -569 417 -795 59 -75
240 -261 302 -313 71 -58 227 -172 236 -172 6 0 11 -4 11 -10 0 -5 4 -10 9
-10 5 0 35 -16 67 -36 66 -39 297 -154 312 -154 5 0 30 -9 54 -20 87 -38 287
-90 324 -84 53 8 93 37 120 84 39 69 27 148 -31 199 -31 27 -63 40 -147 60
-33 8 -198 69 -260 97 -126 55 -408 223 -408 243 0 4 -14 15 -31 25 -71 42
-369 361 -369 395 0 5 -4 11 -9 13 -15 6 -114 172 -164 276 -46 97 -114 273
-122 317 -2 11 -10 45 -18 75 -16 59 -24 98 -33 170 -3 25 -9 63 -13 86 -14
74 -5 412 13 519 25 148 73 325 112 412 8 17 14 34 14 37 0 9 88 186 115 231
13 22 28 49 33 60 11 23 109 159 144 200 74 88 167 186 234 246 95 85 351 259
382 259 6 0 12 3 14 8 3 7 143 76 159 78 5 1 11 3 14 4 3 1 8 3 13 5 4 1 15 5
25 9 16 8 82 -9 152 -38 17 -7 66 -28 110 -46 142 -59 327 -159 470 -255 77
-51 150 -102 162 -114 12 -12 25 -21 29 -21 8 0 129 -106 202 -176 l53 -51
-44 7 c-102 15 -270 0 -397 -37 -381 -109 -693 -453 -755 -830 -3 -18 -7 -47
-10 -63 -13 -73 -8 -236 10 -331 12 -62 57 -204 83 -257 68 -141 195 -301 302
-381 19 -14 37 -28 40 -31 24 -26 242 -140 268 -140 6 0 23 -5 39 -12 15 -6
37 -13 48 -15 11 -2 36 -8 55 -13 129 -33 318 -29 475 11 305 77 553 278 699
565 19 38 36 67 36 64 1 -3 3 -12 6 -20 2 -8 10 -40 17 -71 20 -91 57 -135
131 -155 53 -14 114 3 155 44 22 22 35 51 51 113 12 46 23 85 24 87 2 1 20
-30 40 -69 82 -159 182 -277 322 -379 223 -164 470 -233 744 -206 36 4 72 8
80 11 8 2 29 7 45 9 53 9 158 47 237 86 311 152 532 456 585 805 11 74 7 281
-7 350 -24 120 -102 316 -146 366 -8 8 -14 20 -14 25 0 6 -8 19 -17 30 -10 11
-38 44 -63 74 -25 30 -56 65 -70 76 -14 12 -38 34 -53 48 -53 49 -223 155
-236 147 -2 -2 -7 1 -10 6 -7 10 -141 60 -181 67 -14 3 -56 11 -95 18 -38 7
-121 13 -184 12 l-115 -2 60 55 c94 88 222 193 233 193 6 0 11 4 11 8 0 5 63
50 140 101 201 133 382 223 655 327 58 22 83 16 227 -54 125 -61 269 -145 304
-177 7 -5 24 -19 40 -30 133 -95 305 -269 411 -415 146 -202 283 -497 328
-705 2 -11 7 -31 10 -45 9 -39 13 -61 20 -110 3 -25 8 -58 11 -75 10 -52 12
-377 4 -440 -5 -33 -11 -76 -13 -95 -43 -317 -209 -695 -419 -954 -47 -58
-236 -247 -288 -288 -64 -51 -144 -108 -150 -108 -3 0 -15 -8 -26 -18 -10 -9
-32 -24 -49 -32 -16 -8 -32 -17 -35 -20 -3 -3 -16 -11 -30 -18 -14 -6 -32 -16
-40 -21 -40 -23 -120 -62 -120 -57 0 3 -15 -3 -32 -13 -27 -15 -130 -54 -148
-56 -3 0 -9 -3 -15 -6 -5 -4 -26 -10 -45 -15 -50 -11 -50 -11 -52 -14 -2 -1
-11 -3 -20 -5 -124 -24 -182 -108 -155 -223 14 -56 90 -112 151 -112 37 0 209
47 315 86 163 61 426 196 516 266 6 4 55 42 110 84 131 100 310 283 417 425
47 63 91 125 98 139 7 14 16 27 20 30 6 5 52 86 103 183 46 86 149 353 162
420 3 10 7 27 10 37 3 10 8 27 10 37 2 10 8 38 14 63 11 51 28 150 39 237 8
67 8 451 -1 503 -3 19 -9 58 -13 85 -3 28 -8 59 -11 70 -2 11 -6 31 -8 45 -30
193 -141 490 -261 700 -75 129 -201 304 -283 389 -26 28 -46 51 -45 51 2 0
-29 31 -69 69 -110 105 -221 195 -340 274 l-107 71 57 22 c32 11 69 26 83 31
14 6 27 11 30 11 28 4 318 180 356 216 6 6 29 25 50 41 60 46 196 186 250 256
26 35 51 66 54 69 5 5 10 13 77 129 114 199 141 444 57 527 -78 80 -196 69
-254 -22 -22 -36 -27 -55 -28 -115 -1 -73 -25 -172 -49 -200 -7 -8 -13 -19
-13 -24 0 -22 -119 -182 -192 -257 -219 -224 -416 -332 -778 -424 -96 -25
-224 -62 -285 -81 -636 -207 -1205 -615 -1608 -1153 -31 -41 -60 -79 -64 -85
-10 -12 -118 -177 -149 -225 -85 -136 -199 -358 -281 -550 l-10 -25 -18 40
c-219 494 -468 870 -790 1190 -146 146 -194 188 -317 283 -90 69 -312 222
-323 222 -2 0 -28 14 -57 32 -140 84 -405 204 -558 253 -30 10 -59 20 -65 24
-5 3 -14 6 -20 7 -5 1 -37 9 -70 18 -33 9 -121 33 -195 52 -159 41 -247 72
-350 121 -69 34 -198 109 -210 123 -3 3 -21 17 -40 30 -71 49 -212 190 -258
256 -15 22 -32 44 -39 49 -12 10 -105 188 -112 215 -2 8 -5 51 -6 95 -2 85
-16 124 -57 162 -46 43 -115 54 -173 29z"/>
<path d="M2177 5763 c-2 -1 -39 -5 -82 -8 -44 -4 -82 -8 -84 -11 -2 -2 13 -11
35 -20 21 -8 77 -34 124 -56 47 -23 90 -42 95 -43 14 -3 269 -150 320 -184 27
-18 75 -35 145 -50 58 -12 116 -26 130 -32 14 -5 34 -11 45 -13 43 -9 174 -61
272 -107 85 -41 255 -140 273 -159 3 -3 23 -17 45 -32 22 -15 54 -39 70 -54
83 -72 160 -141 175 -156 32 -34 132 -41 182 -12 9 5 53 43 98 84 45 41 89 79
99 84 9 5 21 15 26 21 35 42 259 180 391 241 104 48 298 112 404 134 61 13
102 28 142 54 32 20 61 36 67 36 5 0 11 4 13 8 4 11 178 107 288 159 47 22
114 54 150 71 39 19 57 31 45 32 -11 1 -45 4 -75 7 -125 12 -449 5 -530 -12
-14 -3 -42 -8 -62 -10 -83 -9 -414 -98 -428 -115 -3 -3 -25 -12 -49 -20 -99
-32 -397 -196 -496 -272 -110 -86 -141 -111 -143 -119 -2 -5 -8 -9 -13 -9 -6
0 -204 143 -276 200 -7 6 -15 10 -19 10 -3 0 -19 9 -34 20 -31 22 -298 162
-302 158 -2 -1 -21 5 -43 14 -22 9 -44 17 -50 18 -5 1 -19 7 -29 12 -41 22
-303 90 -396 103 -14 2 -38 6 -55 9 -88 15 -458 30 -468 19z"/>
<path d="M4039 2147 c-61 -29 -86 -64 -196 -276 -12 -24 -26 -48 -31 -55 -5
-6 -28 -47 -51 -91 -58 -111 -110 -205 -129 -235 -9 -14 -17 -27 -17 -30 0 -3
-43 -81 -95 -175 -52 -93 -100 -182 -106 -196 -15 -33 -11 -114 6 -134 7 -8 9
-15 4 -15 -17 0 47 -51 81 -66 61 -25 122 -14 172 31 12 11 51 72 86 135 35
63 78 142 96 175 19 33 49 89 69 125 19 36 56 103 82 150 78 139 113 204 208
378 56 105 60 152 15 215 -16 23 -41 48 -56 55 -39 19 -108 23 -138 9z"/>
<path d="M2902 2053 c-199 -127 -594 -385 -631 -411 -65 -48 -85 -144 -44
-215 12 -21 62 -60 143 -114 69 -45 131 -87 138 -93 6 -6 12 -7 12 -3 0 4 4 3
8 -4 7 -10 143 -101 207 -137 11 -6 22 -14 25 -17 3 -3 50 -35 105 -70 55 -35
102 -66 105 -69 13 -16 77 -33 112 -31 115 6 190 137 135 236 -12 22 -40 52
-62 68 -71 52 -295 197 -304 197 -4 0 -16 9 -26 20 -10 11 -24 20 -32 20 -7 0
-13 5 -13 10 0 6 -4 10 -10 10 -11 0 -89 52 -89 60 -1 3 62 46 139 95 77 50
148 96 158 103 9 6 63 42 119 79 89 58 104 72 122 113 49 114 -28 230 -152
230 -37 0 -61 -11 -165 -77z"/>
<path d="M4509 2107 c-53 -35 -79 -82 -79 -140 0 -80 24 -107 194 -218 83 -54
158 -103 166 -109 8 -5 57 -37 109 -71 l93 -60 -58 -37 c-33 -20 -63 -40 -69
-45 -25 -21 -287 -187 -295 -187 -5 0 -13 -6 -17 -13 -4 -6 -21 -19 -37 -27
-103 -53 -115 -204 -23 -281 12 -10 30 -18 39 -19 9 0 19 -4 22 -9 3 -4 28 -4
56 0 39 6 78 25 156 76 57 37 112 73 121 78 10 6 22 16 26 23 4 6 13 12 18 12
6 0 37 18 69 40 32 22 64 40 70 40 6 0 13 7 16 15 4 8 12 15 19 15 6 0 21 8
33 17 11 10 80 56 152 103 140 91 170 126 170 200 0 72 -30 109 -161 195 -67
44 -127 82 -133 84 -5 2 -15 8 -21 13 -5 5 -62 43 -125 84 -63 40 -122 78
-130 84 -149 98 -210 137 -233 148 -45 20 -110 15 -148 -11z"/>
</g>
</svg>
